<mxfile host="app.diagrams.net" modified="2023-06-22T19:29:55.617Z" agent="Mozilla/5.0 (Macintosh; Intel Mac OS X 10_15_7) AppleWebKit/537.36 (KHTML, like Gecko) Chrome/108.0.0.0 YaBrowser/23.1.0.2937 Yowser/2.5 Safari/537.36" version="21.2.9" etag="gCsOuoqSnWUXU5tVfT-x" type="github">
  <diagram name="Страница 1" id="FoI3p-UxbR2nJa_U6pMm">
    <mxGraphModel>
      <root>
        <mxCell id="0" />
        <mxCell id="1" parent="0" />
      </root>
    </mxGraphModel>
  </diagram>
</mxfile>
